#N canvas 420 149 1203 834 10;
#X obj 239 318 timer;
#X msg 189 278 bang;
#X msg 291 274 bang;
#X floatatom 239 356 5 0 0 0 - - -;
#X obj 189 240 threshold~;
#X msg 200 218 set 50 100;
#X obj 189 196 adc~ 1;
#X obj 291 242 threshold~;
#X msg 302 220 set 50 100;
#X obj 291 198 adc~ 2;
#X text 187 179 Ref.;
#X text 291 180 Mic.;
#X text 295 355 Aplicar esta cantidad de milisegundos de retrazo en
el parlante mas cercano.;
#X obj 167 570 *~;
#X floatatom 35 473 0 0 0 0 - - -;
#X obj 191 542 line~;
#X msg 191 485 0.1 100;
#X msg 224 515 0 100;
#X text 205 598 audio output;
#X obj 73 571 metro 500;
#X obj 73 546 r metro;
#X msg 360 560 \; metro 0;
#X msg 359 501 \; pd dsp 1 \; metro 1;
#X obj 36 599 tabwrite~ array99;
#X obj 35 502 osc~ 1000;
#X text 422 576 <-Click to stop;
#X obj 50 412 hsl 800 30 20 20000 1 1 empty empty Frecuencia -2 -6
0 10 -191407 -1 -1 17000 1;
#X obj 167 598 dac~;
#X text 223 459 100hz;
#X text 487 461 1 khz;
#X text -12 395 //------------------------oscillator;
#X text 269 516 OFF!!;
#X text 261 483 ON !!;
#X text 463 222 Conecta la entrada 1 (L) a la consola y la 2 (R) al
microfono en frente del parlante;
#X text -27 696 //------------------ Coorelacion de phase en el punto
de corte ( en desarrollo );
#X obj 353 727 adc~ 1;
#X obj 455 729 adc~ 2;
#X text 629 726 1.Calcular la respuesta de Impuslo;
#X text 627 744 2 Aplicar el retrazo calculado a la entrada de referencia.
;
#X text 630 760 3.Analizar la frecuencia FFT;
#X text 632 773 4.Comparar canal 1 y 2;
#X text 633 791 5.Sumar ambos canales y ver la correlacion de phase
;
#X text -11 143 //------------- (en desarrollo usar bajo su propio
riesgo) Mide la diferencia de tiempo entre el canal 1 y 2 de la tarjeta
de sonido.;
#X text 641 701 [ pendiente ];
#X text 739 266 [ pendiente ];
#X text 751 293 Probarlo :);
#X text 627 843 - secuenciardor de barridos;
#X text 68 27 comment;
#X text -8 43 Speaker delay calculator v.0.0.1 ( www.jardincosmico.com/code/index.php?/proyectos/revisiones/388.html
);
#X text -28 398 comment;
#X text -28 804 ///-------------Calcular resonancias de sitio cerrado
;
#X floatatom 33 852 5 0 0 0 - - -;
#X floatatom 107 851 5 0 0 0 - - -;
#X floatatom 176 852 5 0 0 0 - - -;
#X text 260 915 ------------;
#X obj 462 92 soundfiler;
#X msg 462 58 read -resize ../sound/bell.aiff array99 \; pd dsp 1 \;
;
#X floatatom 462 114 0 0 0 0 - - -;
#X floatatom 854 295 0 0 0 0 - - -;
#X msg 854 62 set array99;
#X text 936 62 "set" message permits you to switch between arrays;
#X text 971 181 creation argument initializes array name;
#X obj 854 181 tabplay~ array99;
#X obj 854 269 env~ 16384;
#X obj 930 313 dac~ 1;
#X obj 930 276 *~;
#X obj 943 257 line~;
#X msg 943 216 0.1 100;
#X msg 959 237 0 100;
#X text 1005 217 on;
#X text 1000 236 off;
#X text 991 254 envelope;
#X text 991 265 generator;
#X text 944 201 amplitude controls:;
#X text 974 315 audio output;
#X obj 930 295 hip~ 5;
#X msg 869 132 0 44100;
#X msg 870 111 44100;
#X msg 869 91 bang;
#X text 923 89 "bang" or 0 plays whole sample;
#X text 925 110 play starting at 44100th sample;
#X text 936 130 play starting at beginning for 44100 samples;
#X msg 868 152 44100 1000;
#X text 946 151 play from 44100 through 45099 (1000 samples);
#X text 103 7 DELAYS;
#N canvas 0 0 548 248 sample 0;
#N canvas 0 0 450 300 (subpatch) 0;
#X array G01-tab 62079 float 0;
#X coords 0 1 62078 -1 200 140 1;
#X restore 100 20 graph;
#X obj 61 176 loadbang;
#X obj 60 221 soundfiler;
#X msg 61 199 read -resize ../sound/voice.wav G01-tab;
#X connect 1 0 3 0;
#X connect 3 0 2 0;
#X restore 253 337 pd sample;
#X text 81 195 <-- delay time;
#X text 46 230 read from delay line;
#X text 499 348 updated for Pd version 0.37-1;
#X text 114 209 (msec);
#X text 248 24 comment;
#X text 248 79 comment;
#X text 248 130 comment;
#X text 28 107 comment;
#X text 364 418 comment;
#X text 40 146 comment;
#X text 247 215 comment;
#X obj 212 580 delwrite~ fase 1000;
#X obj 642 582 delread~ fase;
#X obj 552 484 hsl 228 15 0 20 0 0 empty empty empty -2 -8 0 10 -262144
-1 -1 0 1;
#X floatatom 544 522 5 0 0 0 - - -;
#X text 511 547;
#X text 580 522 ms delay entre L y R;
#X text 948 577 180ยบ phase 90ยบ phase;
#X obj 78 461 s freq;
#X text 105 461;
#X obj 777 599 r freq;
#X obj 777 621 t b f;
#X msg 776 647 340;
#X obj 815 650 /;
#X floatatom 815 673 5 0 0 0 - - -;
#X obj 904 399 atan2~;
#X obj 923 578 f;
#X text 856 676 longitud de onda (metros);
#X obj 816 694 s longOnda;
#X obj 938 553 r longOnda;
#X msg 906 550 bang;
#X msg 556 461 0;
#X text 587 461 no delay entre L y R;
#X obj 972 655 f;
#X obj 1009 604 r longOnda;
#X msg 955 627 bang;
#X obj 1023 640 / 2;
#X connect 0 0 3 0;
#X connect 1 0 0 0;
#X connect 2 0 0 1;
#X connect 4 0 1 0;
#X connect 5 0 4 0;
#X connect 6 0 4 0;
#X connect 7 0 2 0;
#X connect 8 0 7 0;
#X connect 9 0 7 0;
#X connect 13 0 27 0;
#X connect 13 0 97 0;
#X connect 14 0 24 0;
#X connect 15 0 13 1;
#X connect 16 0 15 0;
#X connect 17 0 15 0;
#X connect 19 0 23 0;
#X connect 20 0 19 0;
#X connect 20 0 19 0;
#X connect 24 0 13 0;
#X connect 24 0 23 0;
#X connect 26 0 14 0;
#X connect 26 0 104 0;
#X connect 55 0 57 0;
#X connect 56 0 55 0;
#X connect 59 0 62 0;
#X connect 62 0 63 0;
#X connect 62 0 65 0;
#X connect 63 0 58 0;
#X connect 65 0 75 0;
#X connect 66 0 65 1;
#X connect 67 0 66 0;
#X connect 68 0 66 0;
#X connect 75 0 64 0;
#X connect 76 0 62 0;
#X connect 77 0 62 0;
#X connect 78 0 62 0;
#X connect 82 0 62 0;
#X connect 98 0 27 1;
#X connect 99 0 98 0;
#X connect 99 0 100 0;
#X connect 106 0 107 0;
#X connect 107 0 108 0;
#X connect 107 1 109 1;
#X connect 108 0 109 0;
#X connect 109 0 110 0;
#X connect 110 0 114 0;
#X connect 112 0 99 0;
#X connect 115 0 112 1;
#X connect 116 0 112 0;
#X connect 117 0 99 0;
#X connect 119 0 99 0;
#X connect 120 0 122 0;
#X connect 121 0 119 0;
#X connect 122 0 119 1;
